:FULLY-SPECIFIED
:FORCE-ALL-JOINTS-BE-3DOF
:DEGREES
2446
root 2.43508 15.1551 -23.7179 -138.102 83.3949 -136.044
lfemur -34.0031 21.6304 -14.2683
ltibia 72.0826 -0 0
lfoot -24.972 17.9315 0.00147764
ltoes -33.2409 0 0
rfemur -47.9544 -23.9905 12.3166
rtibia 57.5681 -0 0
rfoot 8.86 -0.00119996 0.181644
rtoes 3.40588 -0 0
lowerback 17.3592 1.13696 -3.24272
upperback -0.394788 1.23561 3.20043
thorax -10.2858 0.89223 5.02158
lowerneck 3.81468 -13.2785 -14.9987
upperneck 0.685569 -18.4969 13.9
head 2.28841 -9.34592 5.94949
lclavicle 5.8393e-15 -6.95746e-16 0
lhumerus -30.7491 -55.8056 109.917
lradius 97.649 -0 0
lwrist 56.4255 0 0
lhand -6.55787 50.9554 0.545212
lfingers 7.12502 -0 0
lthumb 19.2756 79.7657 0.449624
rclavicle 5.8393e-15 -6.95746e-16 0
rhumerus 19.1062 17.9905 -68.1775
rradius 112.885 -0 0
rwrist -5.61966 0 0
rhand -26.7889 -44.2183 0.256595
rfingers 7.12502 -0 0
rthumb -0.214655 -73.8102 0.239645
2447
root 2.50225 15.1389 -23.7178 -139.95 83.2752 -137.714
lfemur -33.4652 21.6923 -14.0534
ltibia 72.3117 -0 0
lfoot -25.4723 17.9256 0.00148031
ltoes -33.6797 0 0
rfemur -47.1677 -23.6875 11.4141
rtibia 56.0602 -0 0
rfoot 10.2307 0.266232 0.181973
rtoes 4.73975 -0 0
lowerback 17.2216 0.959568 -3.45842
upperback -0.463567 0.965004 3.27113
thorax -10.2587 0.7776 5.29574
lowerneck 3.74989 -13.2848 -15.0984
upperneck 1.02742 -18.5191 13.7057
head 2.39262 -9.35408 5.88684
lclavicle 5.8393e-15 -6.95746e-16 0
lhumerus -32.8176 -55.2824 110.735
lradius 99.1939 -0 0
lwrist 58.8997 0 0
lhand -5.32661 51.8495 0.546201
lfingers 7.12502 -0 0
lthumb 20.4579 80.5333 0.450439
rclavicle 5.8393e-15 -6.95746e-16 0
rhumerus 16.4687 15.4569 -69.335
rradius 113.113 -0 0
rwrist 0.0999735 0 0
rhand -28.5365 -44.5151 0.257061
rfingers 7.12502 -0 0
rthumb -1.9015 -74.0973 0.24008
2448
root 2.56653 15.1225 -23.7165 -141.717 83.1507 -139.306
lfemur -32.932 21.7518 -13.8399
ltibia 72.5386 -0 0
lfoot -25.9678 17.9197 0.0014318
ltoes -34.1141 0 0
rfemur -46.3957 -23.3763 10.527
rtibia 54.5672 -0 0
rfoot 11.588 0.530974 0.175996
rtoes 6.06053 -0 0
lowerback 17.086 0.783404 -3.67156
upperback -0.531996 0.697136 3.34146
thorax -10.2325 0.663967 5.56716
lowerneck 3.68574 -13.291 -15.1972
upperneck 1.36604 -18.5401 13.5131
head 2.49581 -9.36204 5.82479
lclavicle 5.8393e-15 -6.95746e-16 0
lhumerus -34.826 -54.7484 111.502
lradius 100.724 -0 0
lwrist 61.3497 0 0
lhand -4.10755 52.7347 0.52825
lfingers 7.12502 -0 0
lthumb 21.6285 81.2932 0.435642
rclavicle 5.8393e-15 -6.95746e-16 0
rhumerus 13.9384 12.9013 -70.3494
rradius 113.339 -0 0
rwrist 5.76353 0 0
rhand -30.267 -44.8089 0.248603
rfingers 7.12502 -0 0
rthumb -3.57179 -74.3815 0.232183
2449
root 2.62736 15.1062 -23.7142 -143.382 83.0238 -140.799
lfemur -32.4116 21.808 -13.6311
ltibia 72.7599 -0 0
lfoot -26.4509 17.914 0.00133546
ltoes -34.5378 0 0
rfemur -45.6497 -23.0624 9.66844
rtibia 53.1111 -0 0
rfoot 12.9116 0.788957 0.164128
rtoes 7.34862 -0 0
lowerback 16.9544 0.611116 -3.87902
upperback -0.599045 0.43598 3.41035
thorax -10.2074 0.553028 5.83181
lowerneck 3.62319 -13.2972 -15.2935
upperneck 1.69639 -18.5595 13.3251
head 2.59646 -9.3697 5.76426
lclavicle 5.8393e-15 -6.95746e-16 0
lhumerus -36.7472 -54.2132 112.208
lradius 102.216 -0 0
lwrist 63.7391 0 0
lhand -2.91908 53.5975 0.492612
lfingers 7.12502 -0 0
lthumb 22.7698 82.0338 0.406264
rclavicle 5.8393e-15 -6.95746e-16 0
rhumerus 11.5379 10.3701 -71.2183
rradius 113.559 -0 0
rwrist 11.2869 0 0
rhand -31.9546 -45.0951 0.231813
rfingers 7.12502 -0 0
rthumb -5.20067 -74.6583 0.216506
2450
root 2.68417 15.0903 -23.7112 -144.924 82.8973 -142.177
lfemur -31.9119 21.8602 -13.4302
ltibia 72.9722 -0 0
lfoot -26.9145 17.9084 0.00119754
ltoes -34.9443 0 0
rfemur -44.9405 -22.7516 8.85084
rtibia 51.7141 -0 0
rfoot 14.1815 1.03614 0.147144
rtoes 8.58441 -0 0
lowerback 16.8287 0.445378 -4.07768
upperback -0.663665 0.185506 3.47673
thorax -10.1838 0.446486 6.08566
lowerneck 3.56319 -13.3033 -15.3858
upperneck 2.01342 -18.5771 13.1447
head 2.69304 -9.37695 5.70617
lclavicle 5.8393e-15 -6.95746e-16 0
lhumerus -38.5566 -53.6872 112.849
lradius 103.647 -0 0
lwrist 66.0314 0 0
lhand -1.7795 54.4243 0.441614
lfingers 7.12502 -0 0
lthumb 23.8643 82.7437 0.364222
rclavicle 5.8393e-15 -6.95746e-16 0
rhumerus 9.28758 7.91044 -71.9448
rradius 113.771 -0 0
rwrist 16.586 0 0
rhand -33.5735 -45.369 0.207791
rfingers 7.12502 -0 0
rthumb -6.76332 -74.9233 0.194076
2451
root 2.7364 15.0752 -23.7076 -146.33 82.7741 -143.428
lfemur -31.441 21.9079 -13.2404
ltibia 73.1722 -0 0
lfoot -27.3511 17.9033 0.00102692
ltoes -35.3272 0 0
rfemur -44.2786 -22.4504 8.08639
rtibia 50.3984 -0 0
rfoot 15.3773 1.26854 0.126143
rtoes 9.74826 -0 0
lowerback 16.7108 0.28889 -4.26444
upperback -0.724789 -0.0503223 3.5395
thorax -10.162 0.346051 6.32469
lowerneck 3.50668 -13.3091 -15.4728
upperneck 2.31208 -18.5929 12.9746
head 2.784 -9.38369 5.65145
lclavicle 5.8393e-15 -6.95746e-16 0
lhumerus -40.231 -53.1812 113.42
lradius 104.995 -0 0
lwrist 68.1904 0 0
lhand -0.707038 55.2019 0.378563
lfingers 7.12502 -0 0
lthumb 24.8945 83.4114 0.312238
rclavicle 5.8393e-15 -6.95746e-16 0
rhumerus 7.20756 5.57009 -72.5364
rradius 113.97 -0 0
rwrist 21.5766 0 0
rhand -35.0981 -45.6263 0.178099
rfingers 7.12502 -0 0
rthumb -8.23491 -75.1723 0.16635
2452
root 2.78349 15.061 -23.7038 -147.585 82.6573 -144.541
lfemur -31.0069 21.9506 -13.0652
ltibia 73.3564 -0 0
lfoot -27.7533 17.8985 0.000834751
ltoes -35.6799 0 0
rfemur -43.6738 -22.1658 7.38692
rtibia 49.1862 -0 0
rfoot 16.479 1.48223 0.102505
rtoes 10.8206 -0 0
lowerback 16.6027 0.14437 -4.43623
upperback -0.781334 -0.267542 3.59756
thorax -10.1423 0.253435 6.54488
lowerneck 3.45463 -13.3145 -15.553
upperneck 2.58732 -18.6066 12.8178
head 2.86781 -9.38982 5.60103
lclavicle 5.8393e-15 -6.95746e-16 0
lhumerus -41.7488 -52.7065 113.917
lradius 106.237 -0 0
lwrist 70.1795 0 0
lhand 0.28023 55.9172 0.307603
lfingers 7.12502 -0 0
lthumb 25.8432 84.0257 0.253726
rclavicle 5.8393e-15 -6.95746e-16 0
rhumerus 5.3186 3.39636 -73.0042
rradius 114.153 -0 0
rwrist 26.1748 0 0
rhand -36.5026 -45.8626 0.144693
rfingers 7.12502 -0 0
rthumb -9.59064 -75.401 0.135153
2453
root 2.82488 15.0482 -23.6999 -148.678 82.55 -145.506
lfemur -30.6175 21.9878 -12.9078
ltibia 73.5216 -0 0
lfoot -28.1138 17.8942 0.000634013
ltoes -35.9961 0 0
rfemur -43.1361 -21.9048 6.76394
rtibia 48.0997 -0 0
rfoot 17.4664 1.67336 0.0778291
rtoes 11.7817 -0 0
lowerback 16.5062 0.014556 -4.58997
upperback -0.832207 -0.462197 3.64979
thorax -10.1249 0.170356 6.74222
lowerneck 3.40798 -13.3194 -15.6248
upperneck 2.83407 -18.6184 12.6772
head 2.94294 -9.39526 5.55582
lclavicle 5.8393e-15 -6.95746e-16 0
lhumerus -43.0896 -52.2744 114.341
lradius 107.35 -0 0
lwrist 71.9624 0 0
lhand 1.16434 56.5572 0.233538
lfingers 7.12502 -0 0
lthumb 26.6929 84.5754 0.192645
rclavicle 5.8393e-15 -6.95746e-16 0
rhumerus 3.64319 1.43587 -73.3618
rradius 114.318 -0 0
rwrist 30.2963 0 0
rhand -37.7615 -46.0736 0.109835
rfingers 7.12502 -0 0
rthumb -10.8057 -75.6053 0.102598
2454
root 2.86001 15.0371 -23.6963 -149.599 82.4555 -146.316
lfemur -30.2809 22.0191 -12.7715
ltibia 73.6642 -0 0
lfoot -28.4253 17.8905 0.000438908
ltoes -36.2692 0 0
rfemur -42.6747 -21.6751 6.22879
rtibia 47.161 -0 0
rfoot 18.3194 1.83811 0.0538612
rtoes 12.6121 -0 0
lowerback 16.4231 -0.0978042 -4.72262
upperback -0.876302 -0.63033 3.69505
thorax -10.1101 0.0985318 6.91269
lowerneck 3.36768 -13.3237 -15.6869
upperneck 3.0473 -18.628 12.5557
head 3.00786 -9.39991 5.51676
lclavicle 5.8393e-15 -6.95746e-16 0
lhumerus -44.2333 -51.8963 114.691
lradius 108.312 -0 0
lwrist 73.5028 0 0
lhand 1.92745 57.1091 0.161608
lfingers 7.12502 -0 0
lthumb 27.4265 85.0495 0.133318
rclavicle 5.8393e-15 -6.95746e-16 0
rhumerus 2.20611 -0.265645 -73.6243
rradius 114.46 -0 0
rwrist 33.857 0 0
rhand -38.8489 -46.2553 0.0759933
rfingers 7.12502 -0 0
rthumb -11.8554 -75.7813 0.070989
